<svg xmlns="http://www.w3.org/2000/svg" xmlns:xlink="http://www.w3.org/1999/xlink" version="1.1" id="Layer_1" x="0px" y="0px" viewBox="0 0 217 54" style="enable-background:new 0 0 217 54" xml:space="preserve" width="217" height="54"><script xmlns="" id="krispX" type="text/javascript" async="true" src="chrome-extension://edmmlbmgelmbipapbhcncjblhejknomb/static/js/patch.js" model8="chrome-extension://edmmlbmgelmbipapbhcncjblhejknomb/models/small_8k.thw" model16="chrome-extension://edmmlbmgelmbipapbhcncjblhejknomb/models/small_16k.thw" workletURL="chrome-extension://edmmlbmgelmbipapbhcncjblhejknomb/wasm/krisp-processor.js"/>

    <g stroke="none" stroke-width="1" fill="none" fill-rule="evenodd">
        <g transform="translate(-169.000000, -51.000000)">
            <g transform="translate(165.000000, 51.000000)">
                <g transform="translate(112.500000, 26.500000) rotate(-90.000000) translate(-112.500000, -26.500000) translate(85.000000, -82.000000)">
                    <path d="M30.9355448,135.123811 C30.9355448,135.939018 31.6194306,136.601153 32.4612826,136.601153 C33.3038596,136.601153 33.9877453,135.939018 33.9877453,135.123811 C33.9877453,134.30797 33.3038596,133.64656 32.4612826,133.64656 C31.6194306,133.64656 30.9355448,134.30797 30.9355448,135.123811" id="Fill-17" fill="currentColor"/>
                    <path d="M34.0335129,60.222006 L34.0335129,58.1906495 L7.39930692,47.5034163 L7.39930692,49.676607 L16.1731826,53.1324687 L16.1731826,65.0673901 L7.39930692,68.5585065 L7.39930692,70.8748002 L34.0335129,60.222006 Z M31.0276238,58.9391537 L31.0276238,59.1891083 L18.0254563,64.3555 L18.0254563,53.8444494 L31.0276238,58.9391537 Z M7.39930692,74.2942291 L7.39930692,76.2538981 L17.1864138,76.2538981 C22.1848702,76.2538981 24.3517169,78.8553104 24.3517169,81.811988 C24.3517169,85.125381 22.7087053,86.2298756 20.0173891,86.2298756 L7.39930692,86.2298756 L7.39930692,88.1888195 L17.1864138,88.1888195 C22.1848702,88.1888195 24.3517169,90.7895974 24.3517169,93.7112017 C24.3517169,97.0603931 22.7087053,98.1289986 20.0173891,98.1289986 L7.39930692,98.1289986 L7.39930692,100.088668 L20.1226999,100.088668 C23.443162,100.088668 25.7847412,98.9125762 25.7847412,94.35222 C25.7847412,91.5738094 24.0715829,88.9373237 20.926669,88.0821493 L20.926669,87.93959 C23.8278818,87.7612323 25.7847412,86.4075083 25.7847412,82.4165735 C25.7847412,79.6381629 24.0715829,77.0374756 20.926669,76.1830262 L20.926669,76.005303 L25.2953451,76.005303 L25.2953451,74.2942291 L7.39930692,74.2942291 Z M0.269077241,107.499031 L11.3488243,107.499031 L11.3488243,107.712462 C8.51775833,108.710196 6.90991079,110.990782 6.90991079,114.302725 C6.90991079,118.54298 9.67137375,122.390721 16.3480057,122.390721 C23.0583517,122.390721 25.7847412,118.507181 25.7847412,114.302725 C25.7847412,111.41701 24.1066563,108.638599 20.7518458,107.748261 L20.7518458,107.499031 L25.2953451,107.499031 L25.2953451,105.610325 L0.269077241,105.610325 L0.269077241,107.499031 Z M16.3480057,107.677389 C21.8352239,107.677389 24.3165528,110.740102 24.3165528,114.018422 C24.3165528,117.93776 21.4153401,120.359365 16.3480057,120.359365 C11.2793119,120.359365 8.30786177,118.04443 8.30786177,113.94746 C8.30786177,110.598268 10.6150926,107.677389 16.3480057,107.677389 L16.3480057,107.677389 Z M7.39930692,126.666049 L7.39930692,128.624993 L33.9632755,128.624993 L33.9632755,126.666049 L7.39930692,126.666049 Z M7.39930692,134.218882 L7.39930692,136.177826 L25.2947107,136.177826 L25.2947107,134.218882 L7.39930692,134.218882 Z M8.34293516,149.074048 C8.34293516,145.297904 11.4190617,142.660693 16.2426949,142.62562 L16.2426949,157.232916 C22.2551076,157.090356 25.7847412,153.955321 25.7847412,149.038249 C25.7847412,144.086014 21.8352239,140.55919 16.3480057,140.55919 C10.7899158,140.55919 6.90991079,144.015142 6.90991079,149.038249 C6.94498418,154.168752 9.84619693,156.449338 13.0971466,157.338952 L13.7262019,155.807504 C10.8952266,155.059091 8.34293516,153.420973 8.34293516,149.074048 L8.34293516,149.074048 Z M24.3165528,149.038249 C24.3165528,152.921064 21.6253273,154.738174 17.6406459,155.024652 L17.6406459,142.697216 C21.6604007,143.160602 24.3165528,145.689692 24.3165528,149.038249 L24.3165528,149.038249 Z M7.39930692,161.756749 L7.39930692,163.716417 L17.2559262,163.716417 C22.2895466,163.716417 24.3517169,166.815654 24.3517169,169.702185 C24.3517169,173.014853 22.6041195,174.297615 19.9471517,174.297615 L7.39930692,174.297615 L7.39930692,176.257284 L20.0524625,176.257284 C23.3384856,176.257284 25.7847412,174.796165 25.7847412,170.236443 C25.7847412,167.493196 24.0715829,164.50072 20.926669,163.644821 L20.926669,163.467188 L25.2953451,163.467188 L25.2953451,161.756749 L7.39930692,161.756749 Z M16.3480057,180.425217 C10.6852394,180.425217 6.90991079,184.023638 6.90991079,189.010947 C6.90991079,193.464633 10.0561841,196.243678 13.6216162,196.991457 L14.3553478,195.495174 C11.1740011,194.818357 8.37809917,193.107918 8.37809917,189.010947 C8.37809917,185.128132 11.3838977,182.491556 16.3480057,182.491556 C21.3107543,182.491556 24.3165528,185.199004 24.3165528,189.081909 C24.3165528,192.716854 21.6604007,194.498165 18.3048652,194.889229 L19.0393219,196.386237 C22.6736319,196.066045 25.7847412,193.571303 25.7847412,189.081909 C25.7847412,183.916243 22.010047,180.425217 16.3480057,180.425217 L16.3480057,180.425217 Z M8.34293516,208.533865 C8.34293516,204.758536 11.4190617,202.12196 16.2426949,202.086161 L16.2426949,216.693458 C22.2551076,216.550173 25.7847412,213.415863 25.7847412,208.498791 C25.7847412,203.546646 21.8352239,200.019732 16.3480057,200.019732 C10.7899158,200.019732 6.90991079,203.475684 6.90991079,208.498791 C6.94498418,213.628569 9.84619693,215.90843 13.0971466,216.800128 L13.7262019,215.268137 C10.8952266,214.519632 8.34293516,212.881515 8.34293516,208.533865 L8.34293516,208.533865 Z M24.3165528,208.498791 C24.3165528,212.382331 21.6253273,214.199441 17.6406459,214.483834 L17.6406459,202.157124 C21.6604007,202.620509 24.3165528,205.1496 24.3165528,208.498791 L24.3165528,208.498791 Z" id="Fill-19" fill="currentColor"/>
                    <g id="star" transform="translate(7.537607, 0.683886)">
                        <polygon fill="#E80D8C" points="27.7369786 23.3983007 34.2507504 16.7974345 41.9110686 37.2837376"/>
                        <polygon fill="#E80D8C" points="18.363049 23.3241663 11.8492771 29.9250325 4.18895896 9.43872934"/>
                        <polygon fill="#ED6CA5" points="26.338212 26.7464046 35.5495534 26.7464046 26.6738109 46.7222857"/>
                        <polygon fill="#ED6CA5" points="19.4272137 -1.77635684e-15 10.5501117 19.9758811 19.7621781 19.9758811"/>
                        <polygon fill="#8C2E87" points="23.0133091 28.111276 29.5270809 34.7121422 9.31248326 42.4763212"/>
                        <polygon fill="#8C2E87" points="23.0867185 18.6111909 16.5729467 12.0103247 36.7875443 4.2461458"/>
                        <polygon fill="#E62966" points="19.709704 26.6939305 19.709704 36.0296147 -1.0658141e-14 27.0330639"/>
                        <polygon fill="#E62966" points="46.1009339 19.6897656 26.3897798 10.6939398 26.3897798 20.028174"/>
                    </g>
                </g>
            </g>
        </g>
    </g>
</svg>